<svg width="41" height="40" viewBox="0 0 41 40" fill="none" xmlns="http://www.w3.org/2000/svg">
<path d="M37.1667 27.9V7.78336C37.1667 5.78336 35.5333 4.30003 33.55 4.4667H33.45C29.95 4.7667 24.6333 6.55003 21.6667 8.4167L21.3833 8.60003C20.9 8.90003 20.1 8.90003 19.6167 8.60003L19.2 8.35003C16.2333 6.50003 10.9333 4.73336 7.43333 4.45003C5.45 4.28336 3.83333 5.78336 3.83333 7.7667V27.9C3.83333 29.5 5.13333 31 6.73333 31.2L7.21667 31.2667C10.8333 31.75 16.4167 33.5834 19.6167 35.3334L19.6833 35.3667C20.1333 35.6167 20.85 35.6167 21.2833 35.3667C24.4833 33.6 30.0833 31.75 33.7167 31.2667L34.2667 31.2C35.8667 31 37.1667 29.5 37.1667 27.9Z" fill="#E6EEFF" stroke="#002F90" stroke-width="2" stroke-linecap="round" stroke-linejoin="round"/>
<path d="M20.5 9.15002V34.15" stroke="#002F90" stroke-width="2" stroke-linecap="round" stroke-linejoin="round"/>
<path d="M13.4167 14.15H9.66667" stroke="#002F90" stroke-width="2" stroke-linecap="round" stroke-linejoin="round"/>
<path d="M14.6667 19.15H9.66667" stroke="#002F90" stroke-width="2" stroke-linecap="round" stroke-linejoin="round"/>
</svg>
