<svg width="47" height="46" viewBox="0 0 47 46" fill="none" xmlns="http://www.w3.org/2000/svg">
<path d="M23.5 0C20.4796 0 17.4887 0.594977 14.6982 1.75076C11.9077 2.90667 9.37235 4.60079 7.2365 6.7365C5.10079 8.87235 3.40667 11.4077 2.25076 14.1982C1.09498 16.9887 0.5 19.9796 0.5 23C0.5 26.0204 1.09498 29.0113 2.25076 31.8018C3.40667 34.5923 5.10079 37.1277 7.2365 39.2635C9.37235 41.3992 11.9077 43.0933 14.6982 44.2492C17.4887 45.405 20.4796 46 23.5 46V34.5C21.9898 34.5 20.4944 34.2026 19.0991 33.6246C17.7039 33.0467 16.4361 32.1996 15.3683 31.1318C14.3004 30.0639 13.4533 28.7961 12.8754 27.4009C12.2974 26.0056 12 24.5102 12 23C12 21.4898 12.2974 19.9944 12.8754 18.5991C13.4533 17.2039 14.3004 15.9361 15.3683 14.8683C16.4361 13.8004 17.7039 12.9533 19.0991 12.3754C20.4944 11.7974 21.9898 11.5 23.5 11.5V0Z" fill="#0052FC"/>
<path d="M23.5001 30.6666C27.7344 30.6666 31.1667 27.2342 31.1667 23C31.1667 18.7658 27.7344 15.3334 23.5001 15.3334C19.2659 15.3334 15.8335 18.7658 15.8335 23C15.8335 27.2342 19.2659 30.6666 23.5001 30.6666Z" fill="#0052FC"/>
<path d="M0.5 23C0.5 26.0204 1.09498 29.0113 2.25076 31.8018C3.40667 34.5923 5.10079 37.1277 7.2365 39.2635C9.37235 41.3992 11.9077 43.0933 14.6982 44.2492C17.4887 45.405 20.4796 46 23.5 46C26.5204 46 29.5113 45.405 32.3018 44.2492C35.0923 43.0933 37.6277 41.3992 39.7635 39.2635C41.8992 37.1277 43.5933 34.5923 44.7492 31.8018C45.905 29.0113 46.5 26.0204 46.5 23H35C35 24.5102 34.7026 26.0056 34.1246 27.4009C33.5467 28.7961 32.6996 30.0639 31.6318 31.1317C30.5639 32.1996 29.2961 33.0467 27.9009 33.6246C26.5056 34.2026 25.0102 34.5 23.5 34.5C21.9898 34.5 20.4944 34.2026 19.0991 33.6246C17.7039 33.0467 16.4361 32.1996 15.3683 31.1317C14.3004 30.0639 13.4533 28.7961 12.8754 27.4009C12.2974 26.0056 12 24.5102 12 23H0.5Z" fill="#5BD0F4"/>
<path d="M31.1669 23C31.1669 20.9667 30.3591 19.0167 28.9214 17.5788C27.4836 16.141 25.5336 15.3333 23.5002 15.3333C21.4669 15.3333 19.5169 16.141 18.0791 17.5788C16.6413 19.0167 15.8335 20.9667 15.8335 23H23.5002H31.1669Z" fill="#5BD0F4"/>
</svg>
